<svg width="12" height="6" viewBox="0 0 12 6" fill="none" xmlns="http://www.w3.org/2000/svg">
<path d="M11.6648 1.04938C11.8714 0.866208 11.8905 0.550199 11.7073 0.343548C11.5242 0.136898 11.2081 0.11786 11.0015 0.301028L11.6648 1.04938ZM5.42456 4.74331L5.09483 5.11918L5.42456 4.74331ZM0.457384 1.05109L5.09483 5.11918L5.75428 4.36743L1.11684 0.299346L0.457384 1.05109ZM7.07897 5.11408L11.6648 1.04938L11.0015 0.301028L6.41566 4.36573L7.07897 5.11408ZM5.09483 5.11918C5.66303 5.61762 6.51333 5.61544 7.07897 5.11408L6.41566 4.36573C6.22712 4.53285 5.94368 4.53358 5.75428 4.36743L5.09483 5.11918Z" fill="black" fill-opacity="0.75"/>
</svg>
