<svg width="14" height="17" viewBox="0 0 14 17" fill="none" xmlns="http://www.w3.org/2000/svg">
<g clip-path="url(#clip0_33_6017)">
<path d="M9.8 10.5C8.90281 10.5 8.46875 11 7 11C5.52844 11 5.09937 10.5 4.2 10.5C1.88031 10.5 0 12.3803 0 14.7V15C0 15.8284 0.671562 16.5 1.5 16.5H12.5C13.3284 16.5 14 15.8284 14 15V14.7C14 12.3803 12.1197 10.5 9.8 10.5ZM13 15C13 15.2756 12.7756 15.5 12.5 15.5H1.5C1.22438 15.5 1 15.2756 1 15V14.7C1 12.9356 2.43562 11.5 4.2 11.5C4.80562 11.5 5.42906 12 7 12C8.54375 12 9.20813 11.5 9.8 11.5C11.5644 11.5 13 12.9356 13 14.7V15ZM7 9.5C9.20938 9.5 11 7.70906 11 5.5V0.5L9 1.5L7 0.5L5 1.5L3 0.5V5.5C3 7.70906 4.79094 9.5 7 9.5ZM4 2.11812L5 2.61812L7 1.61812L9 2.61812L10 2.11812V4H4V2.11812ZM4 5H10V5.5C10 7.15406 8.65438 8.5 7 8.5C5.34562 8.5 4 7.15406 4 5.5V5Z" fill="#333333"/>
</g>
<defs>
<clipPath id="clip0_33_6017">
<rect width="14" height="16" fill="white" transform="translate(0 0.5)"/>
</clipPath>
</defs>
</svg>
